<svg xmlns="http://www.w3.org/2000/svg" width="55" height="49" viewBox="0 0 55 49"><path d="M40.78 48.3c-2.16-3.71-5.36-5.4-9.58-5.38-2.4.02-4.8-.08-7.19.03-2.11.1-4.07-.22-5.92-1.26-.87-.49-1.85-.65-2.81-.87-2.34-.53-4.61-1.23-6.95-1.81-3.28-.81-4.06-1.28-6.48-2.24-.4-.15-.88-.03-1.07-.52-.18-.47-.21-.96.13-1.36.59-.7 1.18-1.03 2.23-.97.08 0 .18 0 .24-.04 1.89-1.06 1.89-.34 3.81-.18l5.42.69c.95-.07 8.11 1.67 8.52.85-2.22 0-4.8-1.73-4.48-2.15.56-.74 1.35-1.07 2.3-1.07 2.21.01 4.38.08 6.55.73 1.62.49 3.3.41 4.99-.26 2.75-1.11 5.71-1.47 8.31.22 3.21 2.09 6.25 4.44 8.57 7.59 2.7 3.67 4.01 4.51 6.96 7.97l-13.55.03zm2.61-33.42c-.39.41-.8.96-1.24 1.57-.87 1.19-2.03 2.47-3.55 3.39-.76.46-1.57.87-2.43 1.15-.85.3-1.73.49-2.55.59-.74.09-2.42.31-2.94.29.4-.61.82-1.23 1.3-1.8.32-.43.69-.8 1.04-1.18.35-.39.75-.71 1.11-1.05.38-.31.77-.58 1.14-.85.4-.22.78-.43 1.12-.62.37-.13.71-.26 1.02-.37.29-.14.58-.14.81-.2.46-.08.72-.13.72-.13s-.26.03-.73.08c-.23.04-.52.02-.83.14-.32.09-.68.19-1.07.31-.37.17-.76.35-1.19.54-.39.25-.82.5-1.24.79-.39.32-.83.62-1.22.99-.38.37-.8.73-1.15 1.13-.42.46-.81.92-1.19 1.39 0-.07-.01-.14-.01-.21-.01-.69.13-1.56.42-2.47.31-.9.8-1.82 1.45-2.66.65-.86 1.5-1.61 2.45-2.21.96-.6 2.03-1.05 3.16-1.26 1.12-.23 2.29-.22 3.31.01s1.88.69 2.37 1.15c.25.2.41.46.51.6l.14.25s-.08.05-.22.15c-.13.1-.32.31-.51.49zm-13.46 7.47c-.16.26-.3.52-.44.77 5.32.87 9.7 4.52 11.62 9.41-.35-.24-.7-.47-1.03-.69-2.7-1.76-6.03-1.9-9.83-.38-1.32.53-2.62.61-3.89.22-2.41-.73-4.8-.79-7.05-.8-1.5 0-2.74.6-3.6 1.73-.21.28-.33.61-.36.96-1.16-.21-1.83-.32-2.28-.32l-.36-.04c1.73-5.11 6.1-8.99 11.48-10.01l-.29-.52c-.15-.24-.45-.88-.41-1.04.02-.09.01-.18.02-.27-.38-.47-.77-.94-1.19-1.39-.36-.41-.77-.76-1.16-1.13-.39-.37-.83-.67-1.22-.99-.42-.29-.84-.54-1.23-.79-.43-.19-.83-.38-1.2-.55-.39-.11-.74-.22-1.06-.31-.31-.11-.6-.09-.84-.13l-.73-.08s.27.05.73.13c.22.06.51.06.81.19.3.12.64.24 1.02.38.34.19.72.4 1.11.62.37.27.76.54 1.15.85.36.34.76.66 1.11 1.04.34.39.72.76 1.03 1.18.48.58.91 1.19 1.3 1.81-.51.02-2.19-.2-2.93-.29-.82-.1-1.7-.29-2.55-.59-.86-.28-1.68-.69-2.43-1.15-1.52-.93-2.68-2.2-3.56-3.39-.44-.61-.84-1.16-1.24-1.57-.18-.18-.37-.39-.51-.49-.14-.1-.21-.16-.21-.16s.05-.08.14-.24c.09-.14.25-.4.5-.6.49-.46 1.36-.92 2.38-1.16 1.02-.23 2.19-.23 3.3 0 1.14.21 2.21.66 3.17 1.26.95.6 1.8 1.35 2.44 2.21a8.81 8.81 0 0 1 1.45 2.66c.3.91.44 1.78.43 2.46 0 .08-.01.15-.01.22.46.58.87 1.16 1.25 1.72.74-.11 1.5-.17 2.28-.17.09 0 .18.02.27.02.11-.5.21-1.01.31-1.54.06-.37.32-1.27.49-1.39.1-.08.17-.17.26-.26-.05 1.14-.17 2.23-.31 3.25.27.02.54.03.8.06.43-.65.92-1.34 1.46-2.02 0 .09 0 .18.02.28.04.15-.26.79-.41 1.03zm.35-5.62c-.49 1.16-1.11 2.14-1.71 2.82-.06.08-.14.13-.2.2.03-.79.05-1.6.02-2.41 0-.72-.1-1.43-.16-2.14-.07-.7-.24-1.38-.35-2.04-.17-.65-.38-1.27-.55-1.86-.26-.56-.49-1.09-.71-1.58-.29-.45-.55-.86-.79-1.23-.21-.38-.52-.62-.72-.86-.41-.46-.66-.71-.66-.71s.23.27.61.76c.17.25.47.5.64.89.21.38.44.8.69 1.26.17.5.37 1.03.57 1.59.13.59.29 1.2.4 1.84.06.65.19 1.32.2 2 .01.69.06 1.38 0 2.08-.02.99-.14 1.97-.28 2.92-.53-.42-2.01-2.11-2.66-2.83-.73-.82-1.44-1.78-2.02-2.81-.62-1.03-1.07-2.14-1.42-3.26-.71-2.24-.75-4.52-.59-6.46.09-.99.17-1.9.14-2.65-.04-.34-.04-.71-.09-.92-.05-.23-.08-.35-.08-.35s.12-.04.35-.11c.22-.06.6-.18 1.03-.17.88-.03 2.14.26 3.36.92 1.22.66 2.38 1.67 3.3 2.87.94 1.19 1.61 2.58 2.05 4 .42 1.43.62 2.91.51 4.32a11.66 11.66 0 0 1-.88 3.92z" fill="#252525"/></svg>