<svg xmlns="http://www.w3.org/2000/svg" width="47" height="44" viewBox="0 0 47 44"><path d="M44.42 33.04H18.24c-3.05 0-5.72-1.95-6.65-4.84L4.38 5.84a.241.241 0 0 0-.23-.16H2.58C1.24 5.68.15 4.59.15 3.25S1.24.82 2.58.82h1.57C6.37.82 8.32 2.24 9 4.35l7.21 22.36c.28.88 1.1 1.47 2.03 1.47h26.18c1.34 0 2.43 1.09 2.43 2.43s-1.09 2.43-2.43 2.43zm-2.62-9.08c-.18.74-.84 1.27-1.61 1.27h-20.3c-.72 0-1.36-.47-1.58-1.15L13.32 8.47c-.26-.81-.12-1.7.38-2.39.5-.68 1.3-1.09 2.15-1.09h27.12c.82 0 1.59.38 2.09 1.02.51.64.69 1.48.5 2.27L41.8 23.96zM19.96 35.84c2.13 0 3.87 1.73 3.87 3.87s-1.74 3.87-3.87 3.87c-2.14 0-3.87-1.73-3.87-3.87s1.73-3.87 3.87-3.87zm20.33 0c2.13 0 3.87 1.73 3.87 3.87s-1.74 3.87-3.87 3.87c-2.14 0-3.87-1.73-3.87-3.87s1.73-3.87 3.87-3.87z" fill="#252525"/></svg>