<svg xmlns="http://www.w3.org/2000/svg" width="55" height="55" viewBox="0 0 55 55"><path d="M54 15.9c-2.97.55-6.31 1.93-7.89 2.63a12.9 12.9 0 0 0-1.75-2.17l-4.88-4.87c-.67-.67-1.39-1.26-2.17-1.75.7-1.58 2.08-4.92 2.64-7.89.19-1.04 1.53-1.33 2.14-.48 1.06 1.45 2.1 3.31 1.79 4.71l7.23-2.9c.98-.39 1.95.59 1.56 1.56l-2.91 7.22c1.4-.31 3.27.73 4.72 1.79.85.62.55 1.96-.48 2.15zm-11.27 2.09c4.5 4.5 4.04 11.74-.56 15.71l-10.28-5.89 5.16 9.01-18.8 10.57-6.75-3.64 3.08 5.7-9.16 5.14c-.51.28-1.02.41-1.51.41-2.15 0-3.9-2.39-2.66-4.59l11.77-20.94 8.35 5.06-5.81-9.57 5.35-9.51c2.01-3.58 5.67-5.48 9.38-5.48 2.71 0 5.44 1.02 7.57 3.14l4.87 4.88z" fill="#252525"/></svg>